<?xml version="1.0" encoding="utf-8"?>
<!-- Generator: Adobe Illustrator 19.2.0, SVG Export Plug-In . SVG Version: 6.00 Build 0)  -->
<!DOCTYPE svg PUBLIC "-//W3C//DTD SVG 1.1//EN" "http://www.w3.org/Graphics/SVG/1.1/DTD/svg11.dtd">
<svg version="1.1" id="Layer_1" xmlns="http://www.w3.org/2000/svg" xmlns:xlink="http://www.w3.org/1999/xlink" x="0px" y="0px"
	 viewBox="0 0 76.2 76.2" style="enable-background:new 0 0 76.2 76.2;" xml:space="preserve">
<style type="text/css">
	.st0{fill:#1D1D1D;}
	.st1{fill:#98BD2D;}
	.st2{fill:#97BD2D;}
</style>
<path class="st0" d="M57.9,5.5c-0.7-2.6-3-4.4-5.8-4.4c-9.3,0-18.6,0-27.9,0c-3,0-5.5,2-6,4.7c0,0.1-0.1,0.2-0.2,0.3
	c0,21.4,0,42.7,0,64.1c0.1,0.1,0.1,0.2,0.2,0.3c0.6,2.5,2.2,4,4.8,4.6c0.1,0,0.2,0.1,0.3,0.2c9.9,0,19.7,0,29.6,0
	c0.2-0.1,0.3-0.1,0.5-0.2c2.4-0.6,3.9-2,4.6-4.4c0-0.2,0.1-0.3,0.2-0.5c0-21.4,0-42.7,0-64.1C58,5.9,58,5.7,57.9,5.5z M35.2,7.8
	c0.8,0,1.6,0,2.4,0c1.1,0,2.1,0,3.2,0c0.6,0,0.9,0.2,0.9,0.7c0,0.4-0.3,0.8-0.9,0.8c-0.9,0-1.8,0-2.8,0c0,0,0,0,0,0
	c-0.8,0-1.6,0-2.3,0c-0.2,0-0.4,0-0.6,0c-0.4-0.1-0.7-0.3-0.7-0.7C34.5,8.1,34.8,7.8,35.2,7.8z M54.3,63.1c-10.8,0-21.5,0-32.4,0
	c0-16.4,0-32.8,0-49.3c10.8,0,21.5,0,32.4,0C54.3,30.3,54.3,46.7,54.3,63.1z"/>
<g id="ulKvH9.tif">
	<g>
		<path class="st1" d="M40.8,29.1c0.1,0.1,0.1,0.2,0.1,0.3c-0.2,0.3-0.3,0.5-0.5,0.8c0,0,0,0.1,0,0.1c0.3,0.1,0.6,0.3,0.8,0.5
			c0.2,0.2,0.4,0.4,0.6,0.6c0.2,0.3,0.5,0.6,0.6,0.9c0.1,0.3,0.2,0.6,0.3,0.9c0,0.2,0.1,0.4,0.1,0.6c0,0.1,0,0.1-0.1,0.1
			c-0.5,0-0.9,0-1.4,0c-2.7,0-5.5,0-8.2,0c-0.1,0-0.1,0-0.1-0.1c0-0.8,0.3-1.5,0.8-2.2c0.4-0.6,1-1,1.6-1.3c0.1,0,0.1,0,0-0.1
			c-0.2-0.3-0.3-0.5-0.5-0.8c-0.1-0.1-0.1-0.2,0.1-0.3c0,0,0.1,0,0.1,0c0,0,0.1,0.1,0.1,0.1c0.2,0.3,0.3,0.5,0.5,0.8
			c0.1,0.1,0.1,0.1,0.2,0.1c0,0,0,0,0,0c0.5-0.2,1.1-0.3,1.7-0.3c0.2,0,0.4,0,0.6,0c0.2,0,0.5,0,0.7,0.1c0.3,0.1,0.7,0.2,1,0.3
			c0.1,0,0.1,0,0.1,0c0.2-0.3,0.4-0.6,0.6-0.8c0,0,0.1-0.1,0.1-0.1C40.7,29.1,40.8,29.1,40.8,29.1z M39.8,31.4
			c-0.3,0-0.5,0.2-0.5,0.5c0,0.3,0.2,0.5,0.5,0.5c0.3,0,0.5-0.2,0.5-0.5C40.3,31.7,40.1,31.4,39.8,31.4z M35.9,31.4
			c-0.3,0-0.5,0.2-0.5,0.5c0,0.3,0.2,0.5,0.5,0.5c0.2,0,0.5-0.2,0.5-0.5C36.4,31.7,36.2,31.4,35.9,31.4z"/>
		<path class="st2" d="M30.5,35.2c0,0,0-0.1,0-0.1c0.1-0.4,0.4-0.6,0.8-0.7c0.5-0.1,1,0.3,1.1,0.9c0,0,0,0.1,0,0.1
			c0,1.4,0,2.8,0,4.2c0,0.5-0.4,0.9-0.9,1c-0.5,0-1-0.3-1.1-0.8c0,0,0,0,0,0C30.5,38.1,30.5,36.7,30.5,35.2z"/>
		<path class="st1" d="M45.3,35.2C45.3,35.2,45.3,35.2,45.3,35.2c0,1.5,0,2.9,0,4.4l0,0c0,0,0,0,0,0C45.3,38.1,45.3,36.7,45.3,35.2z
			"/>
		<path class="st1" d="M36.2,45.8C36.2,45.8,36.2,45.8,36.2,45.8c-0.1,0-0.2,0-0.3,0c0,0,0,0,0,0c0,0,0,0,0,0
			C36,45.8,36.1,45.8,36.2,45.8z"/>
		<path class="st1" d="M39.6,45.8C39.6,45.8,39.6,45.8,39.6,45.8C39.6,45.8,39.6,45.8,39.6,45.8c0.1,0,0.2,0,0.3,0c0,0,0,0,0,0
			C39.8,45.8,39.7,45.8,39.6,45.8z"/>
		<path class="st2" d="M39.8,45.8c-0.1,0-0.2,0-0.3,0c-0.3,0-0.5-0.2-0.7-0.4c-0.1-0.2-0.2-0.3-0.2-0.5c0-0.6,0-1.3,0-1.9
			c0-0.1,0-0.1-0.1-0.1c-0.5,0-1.1,0-1.6,0c-0.1,0-0.1,0-0.1,0.1c0,0.6,0,1.3,0,1.9c0,0.5-0.4,0.9-0.8,0.9c0,0,0,0,0,0
			c-0.1,0-0.2,0-0.3,0c-0.4-0.1-0.6-0.3-0.8-0.6c-0.1-0.1-0.1-0.3-0.1-0.4c0-0.6,0-1.3,0-1.9c0-0.1,0-0.1-0.1-0.1
			c-0.2,0-0.5,0-0.7,0c-0.6,0-1.1-0.5-1.2-1.1c0-0.1,0-0.2,0-0.2c0-2.3,0-4.7,0-7c0-0.1,0-0.1,0.1-0.1c3.2,0,6.4,0,9.6,0
			c0.1,0,0.1,0,0.1,0.1c0,2.3,0,4.7,0,7c0,0.7-0.5,1.3-1.2,1.3c-0.3,0-0.5,0-0.8,0c-0.1,0-0.1,0-0.1,0.1c0,0.6,0,1.3,0,1.9
			C40.7,45.3,40.3,45.7,39.8,45.8C39.9,45.8,39.9,45.8,39.8,45.8z"/>
		<path class="st2" d="M45.3,35.2c0,1.5,0,2.9,0,4.4c0,0.3-0.2,0.6-0.4,0.7c-0.6,0.4-1.4,0-1.5-0.7c0-0.1,0-0.1,0-0.2
			c0-1.4,0-2.8,0-4.1c0-0.5,0.3-0.9,0.8-1C44.7,34.3,45.2,34.6,45.3,35.2C45.3,35.2,45.3,35.2,45.3,35.2z"/>
	</g>
</g>
</svg>
