<?xml version="1.0" encoding="utf-8"?>
<!-- Generator: Adobe Illustrator 19.2.0, SVG Export Plug-In . SVG Version: 6.00 Build 0)  -->
<!DOCTYPE svg PUBLIC "-//W3C//DTD SVG 1.1//EN" "http://www.w3.org/Graphics/SVG/1.1/DTD/svg11.dtd">
<svg version="1.1" id="Layer_1" xmlns="http://www.w3.org/2000/svg" xmlns:xlink="http://www.w3.org/1999/xlink" x="0px" y="0px"
	 viewBox="0 0 76.2 76.2" style="enable-background:new 0 0 76.2 76.2;" xml:space="preserve">
<style type="text/css">
	.st0{fill:#1D1D1D;}
</style>
<g>
	<path class="st0" d="M57.9,5.5c-0.7-2.6-3-4.4-5.8-4.4c-9.3,0-18.6,0-27.9,0c-3,0-5.5,2-6,4.7c0,0.1-0.1,0.2-0.2,0.3
		c0,21.4,0,42.7,0,64.1c0.1,0.1,0.1,0.2,0.2,0.3c0.6,2.5,2.2,4,4.8,4.6c0.1,0,0.2,0.1,0.3,0.2c9.9,0,19.7,0,29.6,0
		c0.2-0.1,0.3-0.1,0.5-0.2c2.4-0.6,3.9-2,4.6-4.4c0-0.2,0.1-0.3,0.2-0.5c0-21.4,0-42.7,0-64.1C58,5.9,58,5.7,57.9,5.5z M35.2,7.8
		c0.8,0,1.6,0,2.4,0c1.1,0,2.1,0,3.2,0c0.6,0,0.9,0.2,0.9,0.7c0,0.4-0.3,0.8-0.9,0.8c-0.9,0-1.8,0-2.8,0c0,0,0,0,0,0
		c-0.8,0-1.6,0-2.3,0c-0.2,0-0.4,0-0.6,0c-0.4-0.1-0.7-0.3-0.7-0.7C34.5,8.1,34.8,7.8,35.2,7.8z M32.5,7.8c0.4,0,0.7,0.3,0.7,0.7
		s-0.3,0.7-0.7,0.7s-0.7-0.3-0.7-0.7S32.1,7.8,32.5,7.8z M37.9,71.5c-1.6,0-3-1.3-3-2.9c0-1.6,1.3-3,3-2.9c1.6,0,2.9,1.3,2.9,2.9
		C40.8,70.2,39.5,71.5,37.9,71.5z M54.3,63.1c-10.8,0-21.5,0-32.4,0c0-16.4,0-32.8,0-49.3c10.8,0,21.5,0,32.4,0
		C54.3,30.3,54.3,46.7,54.3,63.1z"/>
	<path class="st0" d="M33,41.6c0.4,0.6,0.8,1.2,1.3,1.8c0.2,0.2,0.4,0.4,0.6,0.5c0.2,0.1,0.4,0.2,0.6,0.3c0,0,0.1,0,0.1,0
		c0.1,0,0.2,0,0.2,0c0.1,0,0.1,0,0.2,0c0.2,0,0.5-0.1,0.7-0.2c0.2-0.1,0.4-0.2,0.6-0.3c0.4-0.1,0.8-0.2,1.2-0.1c0.4,0,0.7,0.1,1,0.3
		c0.2,0.1,0.4,0.2,0.6,0.2c0.3,0.1,0.6,0.1,0.9,0.1c0.3,0,0.6-0.2,0.8-0.3c0.2-0.2,0.5-0.4,0.7-0.6c0.2-0.3,0.4-0.5,0.6-0.8
		c0.4-0.6,0.7-1.2,1-1.9c0.1-0.2,0.1-0.3,0.2-0.5c0,0,0,0,0,0c0,0,0,0,0,0c-0.2-0.1-0.3-0.1-0.4-0.2c-0.6-0.4-1-0.9-1.3-1.5
		c-0.2-0.3-0.2-0.7-0.3-1c-0.1-0.5,0-1,0.1-1.5c0.2-0.5,0.5-1,0.8-1.4c0.2-0.2,0.4-0.4,0.6-0.5c0,0,0,0,0,0c0,0,0,0,0-0.1
		c-0.5-0.7-1.1-1.1-1.9-1.4c-0.3-0.1-0.6-0.1-0.9-0.1c-0.5,0-1,0.1-1.5,0.2c-0.3,0.1-0.6,0.2-0.9,0.3c-0.1,0-0.2,0.1-0.4,0.1
		c-0.2,0.1-0.4,0.1-0.7,0c-0.2-0.1-0.4-0.1-0.6-0.2c-0.3-0.1-0.6-0.2-0.9-0.3c-0.3-0.1-0.6-0.1-0.9-0.1c-0.7,0-1.4,0.3-1.9,0.7
		c-0.7,0.5-1.1,1.1-1.4,1.8c-0.2,0.4-0.3,0.8-0.3,1.2c0,0.2,0,0.4-0.1,0.6c0,0,0,0.1,0,0.1c0,0.2,0,0.4,0,0.5c0,0,0,0.1,0,0.1
		C31.9,39,32.3,40.3,33,41.6z"/>
	<path class="st0" d="M38.1,32.2c0.2,0,0.3,0,0.5,0c0.3-0.1,0.6-0.2,0.9-0.3c0.6-0.3,1-0.8,1.3-1.4c0.3-0.5,0.4-1,0.4-1.6
		c0-0.1,0-0.2,0-0.2c0,0-0.1,0-0.1,0c-0.2,0-0.3,0-0.5,0.1c-1.1,0.3-1.9,1-2.3,2c-0.2,0.4-0.3,0.9-0.3,1.4
		C38.1,32.1,38.1,32.1,38.1,32.2C38.1,32.2,38.1,32.2,38.1,32.2z"/>
</g>
</svg>
